Coordinates
version=1
nRows=19
nColumns=33
inDegrees=yes

Units are S.I. units (second, meters, Newtons, ...)
Angles are in degrees.

endheader
time	ground_thorax_rot_x	ground_thorax_rot_y	ground_thorax_rot_z	ground_thorax_tx	ground_thorax_ty	ground_thorax_tz	clav_prot_r	clav_elev_r	scapula_abduction_r	scapula_elevation_r	scapula_upward_rot_r	scapula_winging_r	shoulder_elv_r	plane_of_elev_r	axial_rot_r	elbow_flexion_r	pro_sup_r	wrist_flex_r	wrist_dev_r	clav_prot_l	clav_elev_l	scapula_abduction_l	scapula_elevation_l	scapula_upward_rot_l	scapula_winging_l	shoulder_elv_l	plane_of_elev_l	axial_rot_l	elbow_flexion_l	pro_sup_l	wrist_flex_l	wrist_dev_l
      2.69000000	     15.81442746	     42.35462844	     17.07440569	     -0.01239916	      1.02827294	     -0.06342850	    -22.19471876	     22.54830300	    -16.46438922	     15.09462344	     42.66230415	    -13.66259474	     99.68741299	    -73.47788784	    124.41560064	     80.90081452	    -24.50985596	     18.18489650	    -10.15700117	     21.34278697	    -16.02894440	    -45.00000000	      5.18847397	     -3.55689820	     16.85615926	     24.68555987	    -31.13147620	    -29.83294562	     57.03227146	      0.94730279	     23.46909444	     -4.44212097
      2.70000000	     15.67965435	     42.37459944	     17.14967433	     -0.01244972	      1.02839786	     -0.06350102	    -22.16707062	     22.34063918	    -16.22307863	     14.92380071	     42.67847875	    -13.69456476	     99.52327041	    -73.50675733	    124.33004308	     80.61194877	    -24.54048286	     18.09215151	    -10.17310038	     21.36405330	    -16.24136609	    -45.00000000	      5.35689420	     -3.56882327	     16.72918699	     24.73275841	    -30.94674476	    -29.77735631	     56.62372097	      1.00585373	     23.35616299	     -4.32984066
      2.71000000	     15.56636865	     42.37492669	     16.95647968	     -0.01241781	      1.02863044	     -0.06371306	    -22.23479613	     21.97760642	    -15.98341140	     14.60609923	     42.75333751	    -13.79182284	     99.09413549	    -73.60934456	    123.84371661	     80.25947347	    -24.68058647	     17.84270766	    -10.09492321	     21.41983746	    -16.33127622	    -45.00000000	      5.35080908	     -3.81441825	     16.69526208	     24.75328082	    -30.35031178	    -29.21552076	     56.25080673	      0.92542091	     23.20910737	     -4.21126322
      2.72000000	     15.45962652	     42.54066914	     17.10528814	     -0.01274792	      1.02809870	     -0.06352972	    -22.26524754	     22.40924779	    -16.51750690	     14.97756479	     42.62224852	    -13.69740369	     95.18989920	    -73.66670808	    120.00889563	     79.93866114	    -25.42622172	     17.45298572	     -9.94963064	     21.81384891	    -16.54122432	    -45.00000000	      4.86187897	     -5.84576106	     16.74847541	     25.91408806	    -28.30911045	    -29.41035459	     55.90767778	      0.36141209	     23.79093554	     -3.74030207
      2.73000000	     15.39767200	     42.63103920	     17.18632470	     -0.01275150	      1.02810164	     -0.06365513	    -22.24502638	     22.27572376	    -16.37444505	     14.87303292	     42.61753043	    -13.71454506	     95.14069882	    -73.68759548	    119.90021694	     79.70084914	    -25.45782811	     17.33976614	     -9.94557732	     21.82958127	    -16.74623520	    -45.00000000	      5.03481360	     -5.82732115	     16.62252942	     25.82719696	    -28.11283733	    -29.33676216	     55.42844874	      0.41190088	     23.74132164	     -3.59940352
      2.74000000	     15.32146951	     42.72206633	     17.23133660	     -0.01276739	      1.02829918	     -0.06379789	    -22.24115125	     22.07092331	    -16.20829481	     14.70641944	     42.60813166	    -13.74219788	     95.07414142	    -73.74237164	    119.73033052	     79.41708140	    -25.51854617	     17.16142529	     -9.91438567	     21.85551341	    -16.95252876	    -45.00000000	      5.19067366	     -5.86187526	     16.49820557	     25.73159497	    -27.85589942	    -29.15053031	     54.92650234	      0.43018443	     23.72372014	     -3.45925645
      2.75000000	     15.46249084	     42.78849038	     17.08144898	     -0.01286102	      1.02786265	     -0.06393450	    -22.18670471	     22.09304073	    -16.28809092	     14.75942618	     42.43358618	    -13.67955191	     93.85024122	    -73.68052022	    117.96652991	     79.47228394	    -25.97148855	     16.37729888	     -9.39357825	     22.00492297	    -17.05120523	    -45.00000000	      5.00705999	     -6.66578875	     16.50622774	     25.63038308	    -26.55600180	    -28.17489023	     54.15495548	      0.00135619	     24.71485821	     -3.21666741
      2.76000000	     15.29131066	     42.79766268	     17.06685667	     -0.01289465	      1.02816859	     -0.06400727	    -22.21880406	     21.76772734	    -16.04709681	     14.48205140	     42.47382387	    -13.74885184	     93.49890846	    -73.78231295	    117.61221658	     79.05595029	    -26.05413662	     16.22812450	     -9.41265993	     22.04689820	    -17.23202296	    -45.00000000	      5.10732865	     -6.80658310	     16.40499087	     25.75631484	    -26.26256620	    -27.94621211	     53.79959034	      0.04628551	     24.59885407	     -3.10269353
      2.77000000	     15.24776434	     42.81097502	     17.16372629	     -0.01287166	      1.02821202	     -0.06409165	    -22.17349463	     21.61924949	    -15.84928681	     14.36555548	     42.46746976	    -13.75622552	     93.35782332	    -73.74138882	    117.48040550	     78.85993112	    -26.10268770	     16.11368371	     -9.38800477	     22.08036949	    -17.44429176	    -45.00000000	      5.25613891	     -6.87761526	     16.28193227	     25.72851061	    -26.08402848	    -27.95375253	     53.36668913	      0.10118913	     24.64050974	     -2.96862269
      2.78000000	     15.15273960	     42.94075757	     17.22018414	     -0.01293591	      1.02844047	     -0.06425760	    -22.17657655	     21.38533979	    -15.71728414	     14.18177497	     42.41662934	    -13.77920329	     93.25338714	    -73.81186444	    117.20571113	     78.47050917	    -26.20594347	     15.89467421	     -9.35716258	     22.11719003	    -17.65833039	    -45.00000000	      5.39875699	     -6.97206331	     16.15604707	     25.68559079	    -25.78312224	    -27.77244580	     52.86991394	      0.13487813	     24.70268815	     -2.81772439
      2.79000000	     14.98169965	     43.02326151	     17.31027945	     -0.01337170	      1.02767157	     -0.06391535	    -22.18588533	     21.80576462	    -16.36995980	     14.58046567	     42.09808086	    -13.63470068	     88.02807136	    -73.71639626	    111.91690593	     78.17031967	    -27.54896945	     15.15823613	     -8.97109331	     22.60132088	    -17.81164026	    -45.00000000	      4.53519237	     -9.93370942	     16.30060767	     27.28444090	    -22.84524837	    -27.24038060	     52.56824391	      0.41775502	     26.44048489	     -2.64099152
      2.80000000	     14.98976687	     43.10158673	     17.34468178	     -0.01327787	      1.02773836	     -0.06408685	    -22.18828467	     21.66593890	    -16.23175039	     14.46005207	     42.12847241	    -13.66659204	     87.99729446	    -73.71676880	    111.76449624	     77.86978567	    -27.57816508	     15.07313244	     -8.97615392	     22.62016226	    -18.00564013	    -45.00000000	      4.69598853	     -9.92276236	     16.18184223	     27.13784287	    -22.66373688	    -27.20318102	     52.07488678	      0.49501259	     26.36364863	     -2.49217517
      2.81000000	     14.93314613	     43.25291680	     17.33501387	     -0.01338187	      1.02780415	     -0.06421963	    -22.18908702	     21.44829058	    -16.08977891	     14.28643970	     42.09631226	    -13.69187021	     87.88151542	    -73.75123688	    111.59448538	     77.51851354	    -27.64342078	     14.91359135	     -8.92138690	     22.63894970	    -18.20377319	    -45.00000000	      4.86211651	     -9.90669644	     16.05685158	     27.02324248	    -22.38185003	    -26.97246309	     51.54069099	      0.54558664	     26.30176940	     -2.33993114
      2.82000000	     14.97427100	     43.18230797	     16.98195036	     -0.01329598	      1.02783645	     -0.06432817	    -22.30037630	     21.07152964	    -15.91577051	     13.95077055	     42.18961135	    -13.80355498	     87.36756541	    -73.68715072	    110.78656021	     77.33378733	    -27.93504805	     14.57799553	     -8.49254977	     22.67207528	    -18.23306730	    -45.00000000	      4.81739423	    -10.11000943	     16.05234929	     26.78193292	    -21.63073192	    -25.87525387	     50.85517677	      0.44699998	     26.49458304	     -2.17041091
      2.83000000	     15.06107466	     43.22273883	     16.98332400	     -0.01357115	      1.02752302	     -0.06445436	    -22.22087443	     21.13724801	    -16.06101484	     14.05674813	     41.92748180	    -13.70359744	     85.44428888	    -73.43480108	    108.53383746	     77.10418161	    -28.83692923	     14.01826595	     -7.89844096	     22.82065727	    -18.43984013	    -45.00000000	      4.68404388	    -10.99880697	     15.99269734	     26.90079295	    -20.50616772	    -25.11784278	     50.22426801	      0.43056244	     27.54129586	     -1.96132184
      2.84000000	     14.95369563	     43.41918810	     17.11895858	     -0.01364977	      1.02753766	     -0.06453498	    -22.22081033	     20.99943765	    -15.99080505	     13.95050909	     41.88718968	    -13.71332127	     85.30085234	    -73.51660999	    108.33604443	     76.69118560	    -28.90573080	     13.92737025	     -7.99401900	     22.84901965	    -18.65675956	    -45.00000000	      4.84914221	    -11.03188180	     15.85980110	     26.91268817	    -20.35934230	    -25.16822120	     49.84695419	      0.54086504	     27.42193252	     -1.84473700
      2.85000000	     14.85732948	     43.53984286	     17.18803783	     -0.01376180	      1.02766783	     -0.06462096	    -22.24092933	     20.76974563	    -15.87873546	     13.76519395	     41.85660840	    -13.74424061	     85.07575238	    -73.52934875	    108.06517651	     76.26817849	    -29.03580552	     13.78676385	     -7.99366068	     22.88604330	    -18.86307854	    -45.00000000	      4.98086867	    -11.13687105	     15.73848997	     26.90485038	    -20.12131157	    -25.01702585	     49.38794121	      0.62113781	     27.32971575	     -1.71720822
      2.86000000	     15.02452746	     43.72949561	     17.02978984	     -0.01404473	      1.02671007	     -0.06457800	    -22.26961268	     21.24942257	    -16.53416711	     14.19892591	     41.61079440	    -13.61920088	     80.99343760	    -73.25812459	    103.61539078	     76.00188993	    -31.13195450	     13.52839091	     -7.42728975	     23.14190378	    -18.96019877	    -45.00000000	      4.41951819	    -13.00822901	     15.81518773	     27.51292144	    -17.75219143	    -24.32211629	     48.63803635	      0.78144407	     28.48767675	     -1.51287168
      2.87000000	     14.85150965	     43.79149653	     17.16694407	     -0.01426241	      1.02697857	     -0.06473189	    -22.26586866	     20.97614195	    -16.29646876	     13.97157537	     41.62777624	    -13.66222091	     80.70793294	    -73.24647280	    103.54654941	     75.43976858	    -31.17312376	     13.37367349	     -7.51657639	     23.17667440	    -19.18156534	    -45.00000000	      4.57317601	    -13.08415488	     15.68216042	     27.55415946	    -17.67408223	    -24.18374153	     48.26712007	      0.85730869	     28.27730856	     -1.43831257
